<svg xmlns="http://www.w3.org/2000/svg" width="256" height="256" fill="none" viewBox="0 0 256 256"><rect width="256" height="256" fill="#F4F2ED" rx="60"/><path class="st0" style="fill:#00c1c1" d="M331.77 511.76H95.41l-43.49-103.8 126.39-44.19L62.86 256.04l118.53-106.89-129.47-45.03L95.41-.1h236.36l128.21 256z" transform="translate(47.299 47.314)scale(.3153)"/><path class="st1" style="fill:#00c1c1" d="m62.86 256.04 397.12-.14-278.59-106.75z" transform="translate(47.299 47.314)scale(.3153)"/><path class="st2" style="fill:#00c1c1" d="M459.98 255.9 226.42 104.12H51.92l129.47 45.03z" transform="translate(47.299 47.314)scale(.3153)"/><path class="st3" style="fill:#00c1c1" d="M226.42 104.12H51.92L95.41-.1h236.36z" transform="translate(47.299 47.314)scale(.3153)"/><path class="st4" style="fill:#00c1c1" d="M226.42 104.12 331.77-.1l128.21 256z" transform="translate(47.299 47.314)scale(.3153)"/><path class="st5" style="opacity:.9;fill:#00c1c1" d="M459.98 255.9H226.42V104.12z" transform="translate(47.299 47.314)scale(.3153)"/><path class="st6" style="fill:#00c1c1" d="M459.98 255.9 226.42 407.68H51.92l129.47-44.89z" transform="translate(47.299 47.314)scale(.3153)"/><path class="st7" style="fill:#00c1c1" d="M226.42 407.68H51.92L95.41 511.9h236.36z" transform="translate(47.299 47.314)scale(.3153)"/><path class="st8" style="fill:#00c1c1" d="M226.42 407.68 331.77 511.9l128.21-256z" transform="translate(47.299 47.314)scale(.3153)"/><path class="st9" style="opacity:.9;fill:#00c1c1" d="m459.98 255.9-233.56.14v151.64z" transform="translate(47.299 47.314)scale(.3153)"/></svg>