<?xml version="1.0" encoding="utf-8"?>
<svg xmlns="http://www.w3.org/2000/svg" viewBox="0 0 256 256" xmlns:bx="https://boxy-svg.com" width="256px" height="256px"><defs><bx:export><bx:file format="svg"/></bx:export></defs><rect width="256" height="256" rx="60" style="stroke-width: 1px; fill: rgb(19, 72, 129); pointer-events: none;"/><path fill="url(#SVGID_1_)" d="M 228.999 219.827 C 228.959 224.895 224.831 229 219.754 229 L 126.453 229 L 86.573 159.924 L 228.999 159.924 L 228.999 219.827 Z M 27 219.754 L 27 179.197 L 114.869 27 L 149.209 27 L 74.976 155.581 L 117.363 228.999 L 36.244 228.999 C 31.142 228.999 27 224.857 27 219.754 Z M 139.594 152.047 L 104.876 152.047 C 100.999 152.047 97.418 150.013 95.482 146.655 C 93.542 143.3 93.542 139.162 95.482 135.807 L 112.849 105.721 L 139.594 152.047 Z M 219.754 27 C 224.833 27 228.96 31.104 229 36.174 L 229 152.047 L 148.69 152.047 L 117.395 97.849 L 158.3 27 L 219.754 27 Z" style=""/><g id="Layer_1" transform="matrix(1, 0, 0, 1, 13.640987, 13.108433)" style="visibility: hidden;"><g transform="matrix(1, 0, 0, 1, -25.640987, -25.108431)"><radialGradient id="SVGID_1_" cx="-103.7661" cy="259.2822" r="2.3202" gradientTransform="matrix(103.416473, 0, 0, -103.416473, 10912.60521, 26802.959797)" gradientUnits="userSpaceOnUse"><stop offset="0" style="stop-color:#6BE1FB"/><stop offset="1" style="stop-color:#38BDFA"/></radialGradient></g></g></svg>