<svg xmlns="http://www.w3.org/2000/svg" xml:space="preserve" style="fill-rule:evenodd;clip-rule:evenodd;stroke-linejoin:round;stroke-miterlimit:2" viewBox="0 0 256 256"><g transform="translate(-425.56 -272.764)scale(3.50813)"><path d="M194.28 94.541c0-9.272-7.516-16.789-16.789-16.789h-39.395c-9.272 0-16.789 7.517-16.789 16.789v39.396c0 9.272 7.517 16.789 16.789 16.789h39.395c9.273 0 16.789-7.517 16.789-16.789z" style="fill:#134881"/><clipPath id="affinity-designer-clip"><path d="M194.28 94.541c0-9.272-7.516-16.789-16.789-16.789h-39.395c-9.272 0-16.789 7.517-16.789 16.789v39.396c0 9.272 7.517 16.789 16.789 16.789h39.395c9.273 0 16.789-7.517 16.789-16.789z"/></clipPath><g clip-path="url(#affinity-designer-clip)"><path d="M2477 909.311c-.17 21.934-18.03 39.689-40 39.689h-403.69l-172.55-298.876H2477zM1603 909V733.513L1983.19 75h148.58l-321.19 556.33L1993.98 949H1643c-22.08 0-40-17.923-40-40m487.17-292.956h-150.22c-16.77 0-32.27-8.8-40.65-23.327a46.91 46.91 0 0 1 0-46.935l75.15-130.17zM2437 75c21.97 0 39.83 17.755 40 39.689v501.355h-347.48l-135.41-234.495L2171.1 75z" style="fill:url(#affinity-designer-gradient)" transform="translate(-12.534 71.49)scale(.0835)"/></g></g><defs><radialGradient id="affinity-designer-gradient" cx="0" cy="0" r="1" gradientTransform="translate(2271.03 -89.26)scale(1038.26)" gradientUnits="userSpaceOnUse"><stop offset="0" style="stop-color:#6be1fb;stop-opacity:1"/><stop offset="1" style="stop-color:#38bdfa;stop-opacity:1"/></radialGradient></defs></svg>