<svg xmlns="http://www.w3.org/2000/svg" xml:space="preserve" style="fill-rule:evenodd;clip-rule:evenodd;stroke-linejoin:round;stroke-miterlimit:2" viewBox="0 0 256 256"><g transform="translate(-425.56 -272.764)scale(3.50813)"><path d="M194.28 94.541c0-9.272-7.516-16.789-16.789-16.789h-39.395c-9.272 0-16.789 7.517-16.789 16.789v39.396c0 9.272 7.517 16.789 16.789 16.789h39.395c9.273 0 16.789-7.517 16.789-16.789z" style="fill:#891b26"/><clipPath id="affinity-publisher-clip"><path d="M194.28 94.541c0-9.272-7.516-16.789-16.789-16.789h-39.395c-9.272 0-16.789 7.517-16.789 16.789v39.396c0 9.272 7.517 16.789 16.789 16.789h39.395c9.273 0 16.789-7.517 16.789-16.789z"/></clipPath><g clip-path="url(#affinity-publisher-clip)"><path d="m4145.14 949-257.8-446.348L3754 733.508V909c0 22.077 17.92 40 40 40zm187.99 0h-148.64s-192.55-333.487-257.06-445.057a70.67 70.67 0 0 1-.01-70.724c23.33-40.368 53.92-93.31 53.92-93.31zm187.99 0h-148.64l-369.29-646.928 72.14-124.89zM4628 808.578V909c0 22.077-17.92 40-40 40h-27.53L4095 143.121 4134.35 75h69.95zM4588 75h-344.36L4628 740.456V115c0-22.077-17.92-40-40-40" style="fill:url(#affinity-publisher-gradient)" transform="translate(-192.129 71.49)scale(.0835)"/></g></g><defs><radialGradient id="affinity-publisher-gradient" cx="0" cy="0" r="1" gradientTransform="translate(4421.95 -89.26)scale(1038.26)" gradientUnits="userSpaceOnUse"><stop offset="0" style="stop-color:#ffae71;stop-opacity:1"/><stop offset="1" style="stop-color:#ff9350;stop-opacity:1"/></radialGradient></defs></svg>