<?xml version="1.0" encoding="utf-8"?>
<svg xmlns="http://www.w3.org/2000/svg" viewBox="0 0 256 256" xmlns:bx="https://boxy-svg.com" width="256px" height="256px"><defs><bx:export><bx:file format="svg"/></bx:export></defs><rect width="256" height="256" rx="60" style="stroke-width: 1px; pointer-events: none; fill: rgb(78, 49, 136);"/><path class="st1" d="M 229 159.913 L 229 219.755 C 229 224.794 224.96 228.898 219.94 229 L 158.827 229 L 118.926 159.917 L 229 159.917 L 229 159.913 Z M 149.735 229 L 41.621 229 L 95.708 135.461 L 149.735 229 Z M 32.94 228.39 C 29.671 227.137 27.292 224.077 27.028 220.439 L 27 179.193 L 70.955 103.095 L 105.308 103.095 L 32.94 228.39 Z M 136.723 102.955 C 139.713 102.969 142.58 104.726 144.127 107.334 C 144.146 107.361 144.174 107.412 144.174 107.412 L 153.257 123.141 C 153.257 123.141 153.308 123.229 153.335 123.271 C 154.82 125.869 154.875 129.138 153.391 131.781 C 150.345 137.106 147.252 142.409 144.184 147.72 C 142.676 150.303 139.824 151.99 136.792 152.028 C 131.004 152.05 119.407 152.037 119.389 152.037 C 116.397 152.023 113.486 150.428 111.937 147.82 C 111.9 147.765 111.84 147.651 111.84 147.651 C 111.84 147.651 102.753 131.92 102.734 131.883 C 101.249 129.285 101.249 125.933 102.734 123.29 C 102.757 123.253 102.803 123.174 102.803 123.174 C 102.803 123.174 108.886 112.626 111.928 107.351 C 113.434 104.768 116.295 102.993 119.324 102.951 C 119.374 102.951 119.476 102.946 119.476 102.946 L 136.621 102.951 L 136.723 102.951 L 136.723 102.955 Z M 222.732 27.49 L 150.797 152.037 L 229 152.037 L 229 36.245 C 229 32.187 226.374 28.733 222.732 27.49 Z M 114.905 27 L 213.926 27 L 160.371 119.717 L 110.865 33.998 L 114.905 27 Z M 137.134 95.227 L 75.498 95.227 L 106.317 41.87 L 137.134 95.227 Z" style="clip-rule: evenodd; fill-rule: evenodd; fill: url(&quot;#gradient-1&quot;);"/><g id="Layer_1" transform="matrix(1, 0, 0, 1, 13.640987, 13.108433)" style="visibility: hidden;"><g transform="matrix(1, 0, 0, 1, -25.640987, -25.108431)"><radialGradient id="SVGID_1_" cx="-103.7661" cy="259.2822" r="2.3202" gradientTransform="matrix(103.416473, 0, 0, -103.416473, 10912.60521, 26802.959797)" gradientUnits="userSpaceOnUse"><stop offset="0" style="stop-color:#6BE1FB"/><stop offset="1" style="stop-color:#38BDFA"/></radialGradient></g></g><g id="svg-1" transform="matrix(0.394531, 0, 0, 0.394531, 83.786743, 73.622414)" style="visibility: hidden;"><g transform="matrix(1, 0, 0, 1, -143.934662, -118.171608)"><radialGradient id="gradient-1" cx="5.7487" cy="6.2885" r="0.4741" gradientTransform="matrix(506.169708, 0, 0, 506.168518, -2728.425618, -3193.980299)" gradientUnits="userSpaceOnUse"><stop offset="0" style="stop-color:#F9A6FF"/><stop offset="1" style="stop-color:#EA73FF"/></radialGradient></g></g></svg>