<?xml version="1.0" encoding="utf-8"?>
<svg xmlns="http://www.w3.org/2000/svg" viewBox="0 0 256 256" xmlns:bx="https://boxy-svg.com" width="256px" height="256px"><defs><bx:export><bx:file format="svg"/></bx:export></defs><rect width="256" height="256" rx="60" style="stroke-width: 1px; pointer-events: none; fill: rgb(137, 27, 38);"/><path class="st1" d="M 117.402 228.999 L 57.819 125.841 L 27 179.193 L 27 219.754 C 27 224.857 31.14 228.999 36.25 228.999 L 117.402 228.999 Z M 160.852 228.999 L 126.498 228.999 C 126.498 228.999 81.994 151.925 67.087 126.137 C 64.165 121.08 64.165 114.849 67.082 109.792 C 72.476 100.464 79.544 88.229 79.544 88.229 L 160.852 228.999 Z M 204.298 228.999 L 169.944 228.999 L 84.596 79.483 L 101.269 50.621 L 204.298 228.999 Z M 229 196.545 L 229 219.754 C 229 224.857 224.858 228.999 219.755 228.999 L 213.395 228.999 L 105.813 42.741 L 114.91 27.001 L 131.075 27.001 L 229 196.545 Z M 219.755 27.001 L 140.167 27.001 L 229 180.801 L 229 36.241 C 229 31.141 224.858 27.001 219.755 27.001 Z" style="clip-rule: evenodd; fill-rule: evenodd; fill: url(&quot;#gradient-2&quot;);"/><g id="Layer_1" transform="matrix(1, 0, 0, 1, 13.640987, 13.108433)" style="visibility: hidden;"><g transform="matrix(1, 0, 0, 1, -25.640987, -25.108431)"><radialGradient id="SVGID_1_" cx="-103.7661" cy="259.2822" r="2.3202" gradientTransform="matrix(103.416473, 0, 0, -103.416473, 10912.60521, 26802.959797)" gradientUnits="userSpaceOnUse"><stop offset="0" style="stop-color:#6BE1FB"/><stop offset="1" style="stop-color:#38BDFA"/></radialGradient></g></g><g id="svg-1" transform="matrix(0.394531, 0, 0, 0.394531, 83.786743, 73.622414)" style="visibility: hidden;"><g transform="matrix(1, 0, 0, 1, -143.934662, -118.171608)"><radialGradient id="gradient-1" cx="5.7487" cy="6.2885" r="0.4741" gradientTransform="matrix(506.169708, 0, 0, 506.168518, -2728.425618, -3193.980299)" gradientUnits="userSpaceOnUse"><stop offset="0" style="stop-color:#F9A6FF"/><stop offset="1" style="stop-color:#EA73FF"/></radialGradient></g></g><g id="svg-2" style="visibility: hidden;"><g transform="matrix(1, 0, 0, 1, -149.286591, -153.3414)"><path class="st0" d="M512,50c0-27.6-22.4-50-50-50H50C22.4,0,0,22.4,0,50v412c0,27.6,22.4,50,50,50h412c27.6,0,50-22.4,50-50V50z" style="clip-rule: evenodd; fill: rgb(137, 27, 38); fill-rule: evenodd; visibility: hidden;"/><radialGradient id="gradient-2" cx="5.7487" cy="6.2885" r="0.4741" gradientTransform="matrix(506.170959, 0, 0, 506.169708, -2728.469294, -3193.986378)" gradientUnits="userSpaceOnUse"><stop offset="0" style="stop-color:#FFAE71"/><stop offset="1" style="stop-color:#FF9350"/></radialGradient></g></g></svg>