<svg xmlns="http://www.w3.org/2000/svg" viewBox="0 0 256 256" width="256" height="256"><defs><radialGradient id="d" gradientUnits="userSpaceOnUse" gradientTransform="matrix(1.05847 .0893 -.16507 1.95658 2.788 -28.124)" cx="32.135" cy="28.274" r="7" href="#a"/><radialGradient id="e" cx="34.078" cy="33.655" r="8" gradientTransform="matrix(1.90337 .76037 -.40632 1.01712 -17.11 -25.82)" gradientUnits="userSpaceOnUse" href="#b"/><radialGradient id="f" cx="29.661" cy="35.661" r="8" gradientTransform="matrix(-1.72364 1.14861 -.5221 -.78349 99.58 27.6)" gradientUnits="userSpaceOnUse" href="#c"/><linearGradient id="a"><stop style="stop-color:#fff;stop-opacity:1" offset="0"/><stop style="stop-color:#009bd8;stop-opacity:1" offset="1"/></linearGradient><linearGradient id="b"><stop style="stop-color:#fff;stop-opacity:1" offset="0"/><stop style="stop-color:#ff3044;stop-opacity:1" offset="1"/></linearGradient><linearGradient id="c"><stop style="stop-color:#fff;stop-opacity:1" offset="0"/><stop style="stop-color:#fcff7c;stop-opacity:1" offset="1"/></linearGradient></defs><rect width="256" height="256" rx="60" style="stroke-width:1px;pointer-events:none;fill:#2c3d4f"/><path style="mix-blend-mode:lighten;fill:url(#d);fill-opacity:1;fill-rule:nonzero" d="M25.003 20.382c-.02.515.071 1.077.223 1.64.289 1.07.767 2.05 1.332 2.977 1.285 2.107 2.906 3.91 4.664 5.585.144.138.316.254.5.343a.62.62 0 0 0 .557.013q.276-.123.485-.35c.61-.63 1.214-1.263 1.791-1.915a31 31 0 0 0 2.29-2.901c.637-.927 1.207-1.901 1.627-2.958.42-1.05.623-2.133.485-3.272-.23-1.88-.997-3.472-2.368-4.72-1.622-1.474-3.51-2.064-5.636-1.736-3.457.536-5.964 3.72-5.95 7.294" transform="translate(-28.356 -16.14)scale(4.8861)"/><path style="display:inline;fill:url(#e);fill-opacity:1" d="M42.895 45.998a6 6 0 0 1-1.412-.144c-1.446-.317-2.673-.974-3.616-2.139a13.3 13.3 0 0 1-1.472-2.29 24 24 0 0 1-1.253-2.954 32 32 0 0 1-1.09-3.718c-.157-.704.02-1.145.8-1.388a36 36 0 0 1 3.001-.81c1.683-.368 3.378-.605 5.108-.546q.733.03 1.458.157a6.3 6.3 0 0 1 3.556 1.909c1.657 1.737 2.316 3.81 1.907 6.172-.587 3.376-3.583 5.778-6.987 5.751" transform="translate(-28.356 -16.14)scale(4.8861)"/><path style="display:inline;fill:url(#f);fill-opacity:1" d="M21.105 45.998a6 6 0 0 0 1.412-.144c1.446-.317 2.673-.974 3.616-2.139.574-.71 1.056-1.48 1.472-2.29a24 24 0 0 0 1.253-2.954 32 32 0 0 0 1.09-3.718c.157-.704-.02-1.145-.8-1.388a36 36 0 0 0-3.001-.81c-1.683-.368-3.378-.605-5.108-.546q-.733.03-1.458.157a6.3 6.3 0 0 0-3.556 1.909c-1.657 1.737-2.316 3.81-1.907 6.172.587 3.376 3.583 5.778 6.987 5.751" transform="translate(-28.356 -16.14)scale(4.8861)"/></svg>