<svg xmlns="http://www.w3.org/2000/svg" width="256" height="256" fill="none" viewBox="0 0 256 256"><rect width="256" height="256" fill="#F4F2ED" rx="60"/><path style="opacity:.2;stroke-width:1px;fill-rule:nonzero;fill:#00c1c1" d="M205.331 100.735c-2.061 19.059-6.677 35.741-12.3 51.999h12.299zm-12.3 51.999c-.136-16.458-2.673-25.764-3.7-29.63v26.798zm-30.476-29.177-13.224 29.177c4.623-.158 8.843.793 14.737-2.922z" transform="translate(-370.064 -223.744)scale(2.80867)"/><path style="stroke-width:1px;fill-rule:nonzero;fill:#00c1c1" d="m188.851 122.104 16.48-22.369-2.44 37.43-9.86 14.49c-1.869-16.239-3.206-25.678-4.18-29.551m-26.296.453-13.224 29.177c4.623-.158 8.843.793 14.737-2.922z" transform="translate(-370.064 -223.744)scale(2.80867)"/><path style="stroke-width:1px;fill-rule:nonzero;fill:#00c1c1" d="M205.331 99.735c-2.061 19.059-6.677 35.741-12.3 51.999h12.299zm-12.3 51.999c-.136-16.458-2.673-25.764-3.7-29.63v26.798z" transform="translate(-370.064 -223.744)scale(2.80867)"/><path style="opacity:.2;stroke-width:1px;fill-rule:nonzero;fill:#00c1c1" d="M205.331 99.735c-2.061 19.059-6.677 35.74-12.301 51.998h.338c5.468-15.943 9.944-32.327 11.963-50.996zm-12.301 51.998c-.135-16.458-2.672-25.762-3.699-29.629v1c1.005 3.785 3.451 12.801 3.682 28.616zm-43.699-51.359h11.891l2.68 21.744-14.571 30.617z" transform="translate(-370.064 -223.744)scale(2.80867)"/><path style="stroke-width:1px;fill-rule:nonzero;fill:#00c1c1" d="M149.331 99.373h11.891l2.68 21.744-14.571 30.618z" transform="translate(-370.064 -223.744)scale(2.80867)"/><path style="opacity:.2;stroke-width:1px;fill-rule:nonzero;fill:#00c1c1" d="m166.327 98.735-16.996 1.637 22.184 40.363h11.718l22.098-40h-16.996l-10.832 25.762z" transform="translate(-370.064 -223.744)scale(2.80867)"/><path style="stroke-width:1px;fill-rule:nonzero;fill:#00c1c1" d="M205.331 99.735h-16.996l-16.82 40h11.718z" transform="translate(-370.064 -223.744)scale(2.80867)"/><path style="opacity:.2;stroke-width:1px;fill-rule:nonzero;fill:#00c1c1" d="m188.335 99.735-16.82 40h.419l16.401-39h16.443l.553-1z" transform="translate(-370.064 -223.744)scale(2.80867)"/><path style="stroke-width:1px;fill-rule:nonzero;fill:#00c1c1" d="m149.331 99.373 16.995-1.638 16.907 42h-11.718z" transform="translate(-370.064 -223.744)scale(2.80867)"/><path style="opacity:.2;stroke-width:1px;fill-rule:nonzero;fill:#00c1c1" d="m166.327 97.735-16.996 1.637.521.949 16.475-1.586 16.504 41h.402z" transform="translate(-370.064 -223.744)scale(2.80867)"/></svg>